<?xml version="1.0" encoding="UTF-8" standalone="no"?>
<svg
   xml:space="preserve"
   width="64"
   height="64"
   version="1.1"
   id="svg2"
   viewBox="0 0 16 16"
   xmlns="http://www.w3.org/2000/svg"
   xmlns:svg="http://www.w3.org/2000/svg"><defs
     id="defs2" /><g
     id="text2"
     style="font-size:9.33333px;line-height:0.7;font-family:'Source Sans Pro';-inkscape-font-specification:'Source Sans Pro';letter-spacing:0.5px;fill:#ff0000;stroke-width:0.85"
     aria-label="f***&#10;uids"><g
       id="path3"
       style="opacity:1"><path
         style="font-size:medium;font-family:'Ubuntu Condensed';-inkscape-font-specification:'Ubuntu Condensed, ';baseline-shift:baseline;display:inline;overflow:visible;vector-effect:none;enable-background:accumulate;stop-color:#000000;stop-opacity:1"
         d="m 2.0958917,0.81886019 q 0.2706666,0 0.4759999,0.056 0.2053332,0.056 0.3359998,0.12133329 L 2.7398915,1.6308599 Q 2.6092249,1.5655266 2.4692249,1.5375266 2.329225,1.5001933 2.1705584,1.5001933 q -0.2146666,0 -0.3546666,0.074667 -0.1399999,0.074667 -0.2146666,0.2053333 -0.074667,0.1306666 -0.1026666,0.3173332 -0.028,0.1773333 -0.028,0.3826666 V 3.1615261 H 2.7305582 V 3.8521925 H 1.4705586 V 8.0615244 H 0.6678922 V 2.480193 q 0,-0.7933331 0.3546666,-1.2226663 Q 1.3772253,0.81886019 2.0958917,0.81886019 Z M 4.0145526,2.0788598 Q 4.2852192,2.1721931 4.5465524,2.340193 4.817219,2.5081929 5.0225523,2.6575262 4.957219,2.4148596 4.873219,2.1161931 4.7985523,1.8081932 4.7985523,1.5281933 V 1.46286 h 0.8213331 v 0.065333 q 0,0.2799999 -0.084,0.5879998 Q 5.4612184,2.4148593 5.3865521,2.6575259 5.6012187,2.517526 5.8532186,2.349526 q 0.252,-0.1773332 0.5226665,-0.2613332 l 0.065333,-0.018667 0.2426666,0.7839998 -0.046667,0.018667 q -0.2706666,0.084 -0.5786665,0.1026667 -0.3079999,0.018667 -0.5506665,0.037333 0.1866666,0.1586666 0.4199999,0.3546665 0.2426666,0.1866666 0.4013332,0.4106666 l 0.037333,0.046667 -0.6626664,0.4853332 -0.028,-0.056 Q 5.5078854,4.0295258 5.3958855,3.7401925 5.2838855,3.4508593 5.1905522,3.217526 5.0972189,3.4508593 4.9852189,3.7401925 4.873219,4.0295258 4.7145524,4.2441924 l -0.037333,0.056 L 4.014553,3.8148593 4.06122,3.7681923 Q 4.2198859,3.5441926 4.4625525,3.3481927 4.7145524,3.1521927 4.901219,2.9935261 4.6492191,2.9748595 4.3412192,2.9655261 4.0332193,2.9561928 3.7625527,2.8535262 l -0.037333,-0.028 0.2333332,-0.7653331 z m 4.1119907,0 Q 8.3972099,2.1721931 8.6585431,2.340193 8.9292097,2.5081929 9.134543,2.6575262 9.0692096,2.4148596 8.9852097,2.1161931 8.910543,1.8081932 8.910543,1.5281933 V 1.46286 h 0.8213331 v 0.065333 q 0,0.2799999 -0.084,0.5879998 Q 9.5732095,2.4148596 9.4985428,2.6575262 9.7132094,2.5175263 9.9652093,2.3495263 10.217209,2.1721931 10.487876,2.0881931 l 0.06533,-0.018667 0.242667,0.7839998 -0.04667,0.018667 q -0.270667,0.084 -0.578666,0.1026667 -0.3080003,0.018667 -0.5506669,0.037333 0.1866666,0.1586666 0.4199999,0.3546665 0.242667,0.1866666 0.401333,0.4106666 l 0.03733,0.046667 -0.6626659,0.4853332 -0.028,-0.056 Q 9.6198761,4.0295258 9.5078762,3.7401925 9.3958762,3.4508593 9.3025429,3.217526 9.2092096,3.4508593 9.0972096,3.7401925 8.9852097,4.0295258 8.8265431,4.2441924 l -0.037333,0.056 -0.6626664,-0.4853331 0.046667,-0.046667 q 0.1586667,-0.2239999 0.4013332,-0.4199998 0.252,-0.196 0.4386666,-0.3546666 -0.252,-0.018667 -0.5599998,-0.028 Q 8.14521,2.9561928 7.8745434,2.8535262 l -0.037333,-0.028 0.2333332,-0.7653331 z m 4.1119907,0 q 0.270667,0.093333 0.532,0.2613332 0.270667,0.1679999 0.476,0.3173332 -0.06533,-0.2426666 -0.149333,-0.5413331 -0.07467,-0.3079999 -0.07467,-0.5879998 V 1.46286 h 0.821333 v 0.065333 q 0,0.2799999 -0.084,0.5879998 Q 13.6852,2.4148596 13.610534,2.6575262 13.8252,2.5175263 14.0772,2.3495263 14.3292,2.1721931 14.599867,2.0881931 l 0.06533,-0.018667 0.242667,0.7839998 -0.04667,0.018667 q -0.270667,0.084 -0.578666,0.1026667 -0.308,0.018667 -0.550667,0.037333 0.186667,0.1586666 0.42,0.3546665 0.242666,0.1866666 0.401333,0.4106666 l 0.03733,0.046667 -0.662666,0.4853332 -0.028,-0.056 q -0.168,-0.2239999 -0.28,-0.5133332 -0.112,-0.2893332 -0.205333,-0.5226665 -0.09333,0.2333333 -0.205333,0.5226665 -0.112,0.2893333 -0.270667,0.5039999 l -0.03733,0.056 -0.662667,-0.4853331 0.04667,-0.046667 q 0.158666,-0.2239999 0.401333,-0.4199998 0.252,-0.196 0.438667,-0.3546666 -0.252,-0.018667 -0.56,-0.028 -0.308,-0.00933 -0.578667,-0.1119999 l -0.03733,-0.028 0.233333,-0.7653331 z"
         id="path5" /><path
         style="font-size:medium;font-family:'Ubuntu Condensed';-inkscape-font-specification:'Ubuntu Condensed, ';baseline-shift:baseline;display:inline;overflow:visible;vector-effect:none;enable-background:accumulate;stop-color:#000000;stop-opacity:1"
         d="m 2.0957031,0.39453125 c -0.5639667,0 -1.0755589,0.19449207 -1.4003906,0.59375 C 0.37782917,1.3734494 0.2421875,1.8889556 0.2421875,2.4804688 V 8.4863281 H 1.8964844 V 4.2773437 H 3.15625 V 2.7363281 H 1.8964844 V 2.4804688 c 0,-0.1175707 0.00676,-0.2231451 0.021484,-0.3164063 v -0.00195 -0.00195 c 0.012603,-0.084024 0.034856,-0.1386349 0.052734,-0.1699219 0.010309,-0.018041 0.014737,-0.024917 0.044922,-0.041016 0.013749,-0.00733 0.060461,-0.023437 0.1542969,-0.023437 0.072444,0 0.1347425,0.00689 0.1894531,0.021484 l 0.013672,0.00391 0.013672,0.00391 c 0.055933,0.011187 0.1095341,0.029377 0.1640625,0.056641 L 3.0175781,2.2441406 3.40625,0.77148437 3.0976563,0.61523437 C 2.9743422,0.55357737 2.8388811,0.50719487 2.6835938,0.46484375 2.5009714,0.41503764 2.3054579,0.39453125 2.0957031,0.39453125 Z M 4.3730469,1.0371094 v 0.4902343 c 0,0.089653 0.02581,0.1841235 0.035156,0.2753907 -0.085664,-0.039782 -0.1678536,-0.094653 -0.2558594,-0.125 L 4.1503906,1.6757812 3.6796875,1.5195312 3.2324219,2.9863281 3.5546875,3.2304688 3.6113281,3.25 c 0.09689,0.036751 0.2048764,0.038289 0.3066407,0.060547 -0.065905,0.072052 -0.1478524,0.1348583 -0.203125,0.2128906 L 3.7597656,3.4667969 3.3632813,3.8652344 4.7851562,4.90625 5.0566406,4.4960937 c 0.055031,-0.074454 0.087989,-0.1693075 0.1347656,-0.2519531 0.04968,0.087024 0.085406,0.1848378 0.1445313,0.2636719 L 5.2949219,4.4433594 5.5488281,4.9492187 6.9746094,3.9042969 6.6757812,3.53125 C 6.6221399,3.455521 6.5423274,3.3973219 6.4785156,3.328125 6.5728417,3.309484 6.6732551,3.3054041 6.7636719,3.2773438 L 6.7792969,3.2734375 7.2050781,3.1015625 6.7246094,1.546875 6.2539062,1.6816406 H 6.25 c -0.086129,0.02673 -0.1613315,0.085445 -0.2441406,0.1230469 0.010496,-0.09198 0.039063,-0.1867138 0.039063,-0.2773438 V 1.0371094 Z m 4.1132812,0 v 0.4902343 c 0,0.089684 0.025804,0.1840913 0.035156,0.2753907 C 8.43561,1.7628288 8.3538535,1.708158 8.265625,1.6777344 L 8.2636719,1.6757812 7.7910156,1.5195312 7.34375,2.9863281 7.6679687,3.2304688 7.7246094,3.25 C 7.8211584,3.286622 7.9279053,3.288317 8.0292969,3.310547 7.9633919,3.382599 7.8814447,3.4454055 7.8261719,3.5234376 L 7.8730469,3.4667969 7.4746094,3.8652344 8.8964844,4.90625 9.1679688,4.4960937 c 0.054804,-0.074147 0.090101,-0.167727 0.1367187,-0.25 0.049322,0.086187 0.083977,0.1835805 0.1425781,0.2617188 L 9.4082031,4.4433594 9.6601563,4.9492187 11.087891,3.9042969 10.773438,3.5117188 10.787109,3.53125 C 10.733468,3.4555208 10.653656,3.397322 10.589844,3.328125 10.68417,3.309484 10.784583,3.3054041 10.875,3.2773438 l 0.01563,-0.00391 0.427734,-0.171875 -0.482421,-1.5546875 -0.46875,0.1347656 h -0.0059 c -0.08585,0.026644 -0.161585,0.083646 -0.24414,0.1210938 0.01036,-0.091372 0.03906,-0.1853521 0.03906,-0.2753907 V 1.0371094 Z m 4.1113279,0 v 0.4902343 c 0,0.089684 0.0258,0.1840907 0.03516,0.2753907 -0.08587,-0.039906 -0.167631,-0.094577 -0.25586,-0.125 l -0.002,-0.00195 -0.472656,-0.15625 -0.447266,1.4667969 0.324219,0.2441407 0.05664,0.019531 c 0.0963,0.036527 0.203572,0.038338 0.304687,0.060547 -0.06576,0.071925 -0.147959,0.1350083 -0.203125,0.2128906 l 0.04687,-0.056641 -0.396484,0.3984375 1.419922,1.0410156 0.273437,-0.4101563 c 0.0547,-0.074006 0.08822,-0.1678991 0.134766,-0.25 0.0494,0.086358 0.08582,0.1834386 0.144531,0.2617188 L 13.519531,4.4433594 13.773438,4.9492187 15.199219,3.9042969 14.900391,3.53125 c -0.0538,-0.075946 -0.135197,-0.1337489 -0.199219,-0.203125 0.0946,-0.018667 0.194487,-0.022642 0.285156,-0.050781 l 0.01758,-0.00391 0.425782,-0.171875 -0.480469,-1.5546875 -0.470703,0.1347656 h -0.0039 c -0.08564,0.02658 -0.161777,0.083762 -0.24414,0.1210938 0.01035,-0.091336 0.03906,-0.1853864 0.03906,-0.2753907 V 1.0371094 Z"
         id="path6" /></g><g
       id="path4"
       style="opacity:1"><path
         style="font-size:medium;font-family:'Ubuntu Condensed';-inkscape-font-specification:'Ubuntu Condensed, ';baseline-shift:baseline;display:inline;overflow:visible;vector-effect:none;enable-background:accumulate;stop-color:#000000;stop-opacity:1"
         d="m 3.7012245,14.991449 q -0.1213333,0.04667 -0.2986666,0.09333 -0.1679999,0.03733 -0.3639998,0.06533 -0.1866666,0.03733 -0.3826666,0.056 -0.1866666,0.028 -0.3453332,0.028 -0.3826665,0 -0.6999998,-0.09333 -0.3173332,-0.084 -0.5413331,-0.308 -0.22399992,-0.223999 -0.34533321,-0.606666 -0.1213333,-0.392 -0.1213333,-0.98 V 10.231451 H 1.4052253 v 2.986665 q 0,0.718667 0.2146666,1.017333 0.2239999,0.289334 0.6719998,0.289334 0.1493332,0 0.2986665,-0.0093 0.1493333,-0.01867 0.3079999,-0.06533 v -4.218665 h 0.8026664 z m 2.7493284,0.14 H 5.6478865 V 10.231451 H 6.4505529 Z M 6.0492197,9.363451 q -0.2146666,0 -0.3733332,-0.14 -0.1493333,-0.1493332 -0.1493333,-0.3919998 0,-0.2426666 0.1493333,-0.3826666 0.1586666,-0.1493332 0.3733332,-0.1493332 0.2146666,0 0.3639999,0.1493332 0.1586666,0.14 0.1586666,0.3826666 0,0.2426666 -0.1586666,0.3919998 -0.1493333,0.14 -0.3639999,0.14 z M 10.51589,10.968784 Q 10.245224,10.81945 9.9372239,10.81945 q -0.2333332,0 -0.4106665,0.09333 -0.1773333,0.09333 -0.3079999,0.308 -0.1213333,0.214666 -0.1866666,0.569333 -0.065333,0.354666 -0.065333,0.877333 0,1.008 0.2613332,1.446666 0.2706666,0.429333 0.8119999,0.429333 0.102666,0 0.223999,-0.0093 0.121334,-0.01867 0.252,-0.056 z m 0,-2.9399992 0.802667,-0.14 v 7.1119972 q -0.261333,0.112 -0.597333,0.177334 -0.336,0.07467 -0.681333,0.07467 -1.0080001,0 -1.4653333,-0.643999 -0.4479998,-0.644 -0.4479998,-1.941333 0,-0.588 0.093333,-1.054666 0.1026666,-0.476 0.3079999,-0.802667 0.2146666,-0.336 0.5413331,-0.513333 0.3266666,-0.186667 0.7746664,-0.186667 0.2146667,0 0.3640007,0.04667 0.158666,0.03733 0.307999,0.112 z m 3.430675,6.5333312 q 0.354666,0 0.532,-0.196 0.186666,-0.205333 0.186666,-0.532 0,-0.205333 -0.07467,-0.345333 -0.07467,-0.149333 -0.196,-0.261333 -0.121334,-0.112 -0.28,-0.196 -0.158667,-0.09333 -0.317333,-0.196 -0.158667,-0.09333 -0.308,-0.214667 -0.149334,-0.130666 -0.270667,-0.289333 -0.112,-0.168 -0.186666,-0.373333 -0.06533,-0.214667 -0.06533,-0.494667 0,-0.606666 0.373333,-0.979999 0.382667,-0.373334 1.026667,-0.373334 0.270666,0 0.513333,0.07467 0.242667,0.06533 0.401333,0.149333 l -0.177333,0.644 q -0.168,-0.09333 -0.336,-0.14 -0.168,-0.04667 -0.364,-0.04667 -0.298666,0 -0.476,0.177333 -0.177333,0.168 -0.177333,0.494666 0,0.186667 0.06533,0.326667 0.06533,0.130666 0.168,0.242666 0.112,0.102667 0.242667,0.196 0.14,0.09333 0.289333,0.177334 0.177333,0.102666 0.345333,0.224 0.177334,0.121333 0.308,0.289333 0.14,0.158666 0.224,0.382666 0.084,0.214667 0.084,0.522667 0,0.644 -0.382666,1.035999 -0.373334,0.392 -1.101333,0.392 -0.373334,0 -0.672,-0.102666 -0.298667,-0.102667 -0.448,-0.186667 l 0.168,-0.662666 q 0.14,0.07467 0.373333,0.168 0.242667,0.09333 0.532,0.09333 z"
         id="path7" /><path
         style="font-size:medium;font-family:'Ubuntu Condensed';-inkscape-font-specification:'Ubuntu Condensed, ';baseline-shift:baseline;display:inline;overflow:visible;vector-effect:none;enable-background:accumulate;stop-color:#000000;stop-opacity:1"
         d="M 11.744141,7.3828125 10.091797,7.671875 V 9.71875 C 10.009307,9.70803 9.9317257,9.685547 9.84375,9.685547 9.4888917,9.685547 9.1541114,9.762533 8.8652344,9.9257814 8.5839242,10.079057 8.3469173,10.304995 8.1699219,10.582031 h -0.00195 v 0.002 c -0.169404,0.269455 -0.2867529,0.584578 -0.3632844,0.939407 v 0.002 l -0.00195,0.0039 c -0.068954,0.344771 -0.1015625,0.724185 -0.1015625,1.138672 0,0.913809 0.1503235,1.644434 0.5253906,2.183594 v 0.002 l 0.00195,0.002 c 0.3902354,0.549514 1.0480377,0.822265 1.8105474,0.822265 0.257528,0 0.512699,-0.02699 0.763671,-0.08203 l 0.0098,-0.002 c 0.244387,-0.04814 0.469372,-0.115501 0.673828,-0.203125 L 11.744141,15.28125 Z M 6.0488281,7.875 C 5.8071664,7.875 5.5602012,7.973556 5.3847656,8.1386719 5.1958254,8.3158034 5.1015625,8.583074 5.1015625,8.8320313 c 0,0.2489572 0.092491,0.5104598 0.2734375,0.6914062 l 0.00977,0.00977 0.00977,0.00977 c 0.177078,0.1562453 0.4187945,0.2460937 0.6542969,0.2460937 0.2355024,0 0.4806122,-0.09303 0.6542969,-0.2558594 h 0.00195 C 6.894521,9.354904 6.9960938,9.0864372 6.9960937,8.8320313 6.9960938,8.5819867 6.8918207,8.3168346 6.7011719,8.1425781 6.5299179,7.9766311 6.2860928,7.875 6.0488281,7.875 Z m 0,0.8496094 c 0.04456,0 0.036897,-0.00217 0.064453,0.025391 l 0.00977,0.00781 0.00977,0.00977 c 0.014431,0.012733 0.013672,-0.0047 0.013672,0.064453 0,0.069149 -0.00328,0.061219 -0.025391,0.082031 -0.023544,0.022222 -0.02276,0.023437 -0.072266,0.023437 -0.04205,0 -0.053664,-0.00924 -0.076172,-0.027344 -0.012629,-0.012321 -0.021484,-0.014663 -0.021484,-0.078125 0,-0.074598 0.00545,-0.062731 0.015625,-0.072266 v -0.00195 c 0.03612,-0.033995 0.037471,-0.033203 0.082031,-0.033203 z m 8.3183599,0.9609375 c -0.51146,0 -0.983808,0.1620314 -1.324219,0.4941411 l -0.002,0.002 -0.002,0.002 c -0.33028,0.330279 -0.498047,0.787673 -0.498047,1.279297 0,0.21972 0.02545,0.42679 0.08398,0.61914 l 0.0039,0.0098 0.0039,0.01172 c 0.06038,0.166043 0.137605,0.320666 0.232421,0.46289 l 0.0078,0.01172 0.0078,0.01172 c 0.0978,0.127892 0.20734,0.245876 0.328125,0.351562 l 0.0059,0.0039 0.0059,0.0059 c 0.110508,0.08979 0.226381,0.168988 0.345703,0.240234 0.110713,0.07164 0.220913,0.14167 0.332032,0.207032 l 0.0098,0.0039 0.0078,0.0039 c 0.07634,0.04041 0.137497,0.08485 0.189453,0.132813 0.04364,0.04028 0.07786,0.08541 0.105469,0.140625 l 0.002,0.0039 0.002,0.0059 c 0.0092,0.01721 0.02539,0.05916 0.02539,0.144531 0,0.136826 -0.02719,0.192212 -0.07617,0.246094 -0.02365,0.02614 -0.05864,0.05664 -0.216797,0.05664 -0.14486,0 -0.267312,-0.02184 -0.375,-0.0625 l -0.0059,-0.002 c -0.142873,-0.05736 -0.253734,-0.108891 -0.324218,-0.146485 l -0.480469,-0.255859 -0.38086,1.503906 0.283204,0.160156 c 0.140591,0.07908 0.307315,0.145801 0.519531,0.21875 0.250593,0.08614 0.522699,0.125 0.810547,0.125 0.560676,0 1.062258,-0.161515 1.40625,-0.521484 0.335185,-0.34443 0.501953,-0.819426 0.501953,-1.332031 0,-0.241804 -0.03178,-0.46604 -0.111328,-0.671875 l -0.002,-0.002 c -0.07003,-0.185938 -0.168607,-0.354244 -0.294922,-0.5 -0.110265,-0.139725 -0.237994,-0.263646 -0.384766,-0.365235 l -0.0059,-0.0039 c -0.121613,-0.08755 -0.246343,-0.167702 -0.375,-0.242187 l -0.002,-0.002 -0.002,-0.002 c -0.0904,-0.05085 -0.177448,-0.103978 -0.261718,-0.160156 -0.06421,-0.0464 -0.121265,-0.09551 -0.175782,-0.144531 -0.03452,-0.03975 -0.06385,-0.08049 -0.08594,-0.123047 -0.01258,-0.02787 -0.02539,-0.07158 -0.02539,-0.144531 0,-0.140873 0.02654,-0.168133 0.04492,-0.185547 l 0.0039,-0.0039 0.0039,-0.0039 c 0.03387,-0.03387 0.06078,-0.05273 0.175781,-0.05273 0.09693,0 0.179069,0.01154 0.25,0.03125 0.07681,0.02134 0.158424,0.05394 0.244141,0.101562 l 0.470703,0.261719 0.412109,-1.49414 -0.300781,-0.1582036 C 15.340379,9.8848162 15.18215,9.827667 15.005859,9.7792969 14.80163,9.7164543 14.586714,9.6855469 14.367188,9.6855469 Z M 0.17773437,9.8066406 v 3.4394534 c 10e-9,0.421233 0.0419882,0.786796 0.14062501,1.105469 v 0.002 0.002 c 0.0964422,0.304164 0.24340349,0.569576 0.45117187,0.777344 0.20150694,0.201507 0.45443955,0.344385 0.73242185,0.417968 0.2527682,0.07306 0.5230873,0.107422 0.8085938,0.107422 0.1232651,0 0.2516743,-0.01031 0.3847656,-0.0293 6.493e-4,-6.2e-5 0.0013,6.2e-5 0.00195,0 0.1366013,-0.01307 0.2706204,-0.03298 0.4023438,-0.05859 l 0.021484,-0.0039 C 3.2526405,15.547124 3.3767088,15.526094 3.4941406,15.5 l 0.00781,-0.002 0.00781,-0.002 c 0.1288761,-0.03391 0.2424038,-0.06844 0.34375,-0.107422 L 4.1269531,15.283203 V 9.8066406 H 2.4726563 V 14.09375 c -0.060294,0.0025 -0.1213618,0.0059 -0.1816407,0.0059 -0.2021539,0 -0.2643452,-0.04079 -0.328125,-0.121093 C 1.9137758,13.90651 1.8300781,13.649979 1.8300781,13.21875 V 9.8066406 Z m 5.04492183,0 V 15.556641 H 6.875 V 9.8066406 Z m 8.4121098,0.8535154 c -0.0016,0.0015 -4.02e-4,0.0044 -0.002,0.0059 -0.0015,0.0015 -0.0044,4.53e-4 -0.0059,0.002 z M 9.9375,11.244141 c 0.056575,0 0.103005,0.03029 0.154297,0.04101 v 2.832032 c -0.01659,3.95e-4 -0.03741,0.002 -0.05273,0.002 -0.2463949,0 -0.3362935,-0.05604 -0.4472661,-0.230469 -0.1003082,-0.17169 -0.2011759,-0.589569 -0.2011759,-1.220745 0,-0.330737 0.021777,-0.600918 0.058594,-0.800781 0.037169,-0.201774 0.089734,-0.344715 0.1367187,-0.429688 0.054994,-0.08831 0.1022114,-0.129248 0.1386719,-0.148437 0.050238,-0.02644 0.1139998,-0.04492 0.2128906,-0.04492 z m -8.8652344,2.365234 c 0.024744,0.240523 0.058959,0.47742 0.1542969,0.666016 -0.031722,-0.06192 -0.069332,-0.09316 -0.095703,-0.175782 -0.036259,-0.117143 -0.041017,-0.319556 -0.058594,-0.490234 z m 0.3105469,0.931641 c 0.1191026,0.123711 0.2969369,0.143427 0.4589844,0.205078 -0.033922,-0.0078 -0.079276,-0.0042 -0.1113282,-0.01367 l -0.00586,-0.002 H 1.71875 C 1.5793142,14.693559 1.4769646,14.631738 1.3828125,14.541016 Z"
         id="path8" /></g></g></svg>
